<svg id="Layer_1" data-name="Layer 1" xmlns="http://www.w3.org/2000/svg" viewBox="0 0 109.97 97.59"><defs><style>.cls-1{fill:#fff;fill-rule:evenodd;}</style></defs><title>icon-02</title><path class="cls-1" d="M494,356.2c-.44.31-.88.6-.8,1.32.94,8.14-13.6,20.33-20.32,25-.3.21-27.66,13-28.17,16.62-.22,1.6-3.43,2.26-4.06,4.11-2.23,6.54,5.33,16.61,8.81,14.55,6.25-3.69-.39,2.49,10.86-2.8.76-.36,11,10.56,18.71,17.08,5.71,4.82,4.82,3.12,6.79.18s1.35-7.79-1.46-5.84c-1.76,1.21-3.35-1.05-3.61-1.32-3.95-4-2.72-2.36-6.43-7.86a33.62,33.62,0,0,1,1.89-3.41c.91-1.63-.23-2.08-.09-2.55.26-.85-.23-1.39-.75-1.92-2.4-2.46-2.07-1.29,1.67-3.67,2.48-1.57.11-1,8.67-3.55,25.16-7.54,29.48-1.88,32-2.07,8.25-.64-1.32-19.44-5.33-26.76C501.56,353.38,499.16,352.62,494,356.2Zm-50.28,45.14c.79-.48.6,1-.17,1.55C440.43,405.21,440.43,403.35,443.76,401.34Zm.13,2.83c-.5.45-2.57,2-2.71,1.69C440.45,404.45,445.93,402.33,443.89,404.17Zm-2.68,3c-.22-.75,3.47-2.55,3.47-2.12,0,.78.36.81-1.86,2.12C442.18,407.52,441.42,407.86,441.21,407.15Zm3,6.78a34.79,34.79,0,0,1-2.22-4.07c-.11-.35-.84-1.22.4-1.82,4.32-2.08,1.37-1.91,5.59,4.25.32.47-1.57,1.64-3,2C444.45,414.4,444.47,414.39,444.17,413.93Zm1.25,1.45c-.48-.36,2.47-1.9,3-2.17.18-.08.61.2.37.38C447.24,414.9,446.24,416,445.42,415.38Zm2,.12c.53-.39,1.14-.67,1.64-1.09s.61-.19.85.1a12.43,12.43,0,0,1-1.68,1.34C446.38,417.1,446.54,416.12,447.4,415.5Zm2.18,1.39c-.54.26-.55.4-1.18.06s1.59-1.61,2-1.69c.25-.05.59.25.86.43S450,416.68,449.57,416.89Zm24.95-1.81c-1.06,1.57-2.49,2.13,5.13,10.2a19.5,19.5,0,0,0,1.8,1.74c1.85,1.51,3.57-.36,4.53.08,1.21.56.1,3.69-.66,4.61-.26.31-.24.84-.49,1.17-.62.83-1.5,1.71-2.35,1-6.11-4.77-19-16.93-21-19.17-.42-.47.57-.54,4.5-2.58,4.39-2.28,1.25-1.75,5.53.9,1.41.88,1.95.68,3-.22.26-.23,1.1-1,1.3-.68S476.11,412.72,474.52,415.08Zm.82-4.87c.63.66-.16,1.05-1.75,2.32a2,2,0,0,1-2.06-.21,23.26,23.26,0,0,1-1.86-1.83c-.32-.34.39-.69,3.4-2.43C473.35,407.88,473.4,408.16,475.34,410.21Zm2.25-5.88a10.36,10.36,0,0,1-1,.68c-1.59.66-3.87-2.31-4.14-2.58a.21.21,0,0,0-.33.27c2.22,3.33,3.7,2.54,2.74,3.4s-3.52-.94-4.27-2.27c-.23-.41-1.65.14,2.31,3,.27.2.25.34,0,.51-1.5.88-1.47,1.73-4.41-.89-.49-.44-1.16-1.66-1.34-1s2.17,2.7,2.89,3.14a.23.23,0,0,1,0,.37c-1.37,1.22-2.21,1.16-3.39.27-1.5-1.13-2.09-2.58-2.5-2.25-.65.53,2.85,3.16,3.16,3.41s-.71.72-1.67,1.31c-.3.19-3.16-.8-4-2.68-.26-.59-1.94-.07,2.59,3.08a.27.27,0,0,1,0,.23c-3.07,1.56-3.05.92-5.78-2-.25-.27-1.63-.07,2.63,3.32.24.18-.48.51-.74.66-1.14.64-1,.44-2.43-.26a5.74,5.74,0,0,1-2.46-2.34.24.24,0,0,0-.3-.1c-.61.26,1.12,2.4,3,3.25.42.2.35.3,0,.48-.68.36-1.25,1.17-2.56.28a9.9,9.9,0,0,1-2.84-2.92c-1-.49.36,2,2.55,3.51.77.53-3.27,1.14-8-6.32-1.62-2.57-3.09-7.57-1.79-11,.44-1.17,1.46-2,4.31-3.59,11.53-6.28,15.66-8.81,18.63-10.14a.23.23,0,0,1,.32.28c-1,3.32.85,14.95,8.71,18.45C477.81,404,478,404.08,477.59,404.33Zm36.66-5.82a48.77,48.77,0,0,0-7.09-.79c-4.79.19-7.8-.07-21.93,4-6.92,2-6.29,2.05-6.68,1.85-6.77-3.48-8.69-8.34-9.43-16.52-.24-3.06.6-.06,14.35-12.3a58.19,58.19,0,0,0,9.74-13.13.16.16,0,0,1,.3,0c1,5,1.44,11.73,15.37,30.87C510.89,395.32,515.42,398.6,514.24,398.51Zm-7.42-9.62s-2.58-4-2.6-4c-7-11-9.77-16.53-10.51-26.93a2.58,2.58,0,0,1,1.66-1.84s-2.43,8.61,9.37,26.82c3,4.6,8.9,13.07,13.7,15.73C519,398.94,516.18,402.25,506.82,388.89Zm-1.56-14.19c.23,2.35,3.79,6.64,3.79,6.64,0,.34-1.14.93-1.41,1.08a14.79,14.79,0,0,1-1.47.68c-.73.39-1,.12-4.59-7.15-.55-1.1-.69-1,2.3-2.34C505.14,373,505.14,373.39,505.26,374.7Zm4.59,3.82c.35.78.83,5-2.95-1.17C504.21,372.94,506.31,370.54,509.85,378.52Zm2.88,13.82c-1.49-1.71-1-.33-4-4.56s-2.72-3.29-.36-4.79c.4-.26.76-.59,1.17-.84s.79-.22.87-.44c1-2.75-1.79-8.3-4.63-9.46-.74-.3-5.08,2.44-5.33,1.4a38.6,38.6,0,0,1-3-6.74,39.78,39.78,0,0,1-1.48-10c.48-.55-.07-1.39,1.35-1.66C506.26,353.53,534.15,416.84,512.73,392.34ZM526.45,354c-1.42,1-2.08-.55,3.69,10.33,3.42,6.45,2.68,6.34,4,5.48h0c1.92-1.07.77-.88-1.41-5.08C527.89,355.43,527.71,353.15,526.45,354Zm7.72,14.12c.22.41.32.67-.15.95-.72.41-.9-.18-1.11-.55.12-.07-3-5.67-3.11-5.8-4.31-8-4-7.42-3-8.16C527.2,354.31,530.2,360.73,534.17,368.16Zm-9.45,9.61c-1.45.49-1,.23,1.3,6.32,4.67,12.51,2.89,9.75,5.34,9.34.59-.1.45-.46.31-.78C524.71,376.09,526.67,377.12,524.72,377.77ZM531,392.48c.08.18,0,.43-.2.45s-.6.36-.82-.23c-1.07-2.79-6.36-13.59-4.63-14.38C525.94,378,526.7,382.09,531,392.48Zm-19.67-38.12c0,.34.21.42.5.27,2.38-1.27,1.85-.69-.24-3.9-6.2-9.51-4.75-10.8-7.24-8.21C503.64,343.22,511.11,353,511.29,354.37Zm-6.37-11.43c1.75-1.92.7,0,6.72,8.79-.13.09,1.2,1.62.78,1.73-.24.06-.63.17-.72.06C510.71,352.3,504.59,343.31,504.92,342.94Zm25.53,44.54c-1.05-.18,19.46-4.39,19.81-5C550.74,381.56,527.3,386.93,530.45,387.48Zm-4.53-20.31-10.07,5.27a1.5,1.5,0,0,0-.44.26c-1.72,2.11,13.26-6.2,13.28-6.55C528.77,365,527.58,366.27,525.92,367.17Zm-5.66-29.69c-.57.11-4.25,5.78-6,8.41C507.16,356.19,521.89,337.17,520.26,337.48Zm13,26s6.61-3.81,8.16-4.38a3.16,3.16,0,0,0,.12-.6C541.56,358,531,364,533.23,363.48Zm-18-5.56c1.32-.74.88-3.92-2-2.34C512.3,356.13,513.42,358.9,515.28,357.92Zm-.93-1.94c1.33-.39,1.2,0,.8,1.29-.1.32-1,0-1.28-.12C513.33,356.81,513.63,356.2,514.35,356ZM531,397.44c1.84,2,2.79-1.61.88-2.34A1.34,1.34,0,0,0,531,397.44Zm1.18-.21a1.25,1.25,0,0,1-.93-.39c-.12-.14,0-.79.09-.8s1.09,0,1.2.22A1.44,1.44,0,0,1,532.17,397.22Zm2.53-24.6a.93.93,0,0,0,1.73.11C537.59,370.29,533.22,369.23,534.7,372.62Zm.39-.07c-.34-.06-.15-.52-.05-1.17.06-.37.79-.12,1,.12C536.37,371.94,536.21,372.75,535.09,372.55ZM521.5,388.9c-.14,0-.21.23-.28.37-.33.68,1.63.16,4-.53.26-.08.45-.61.1-.67A33.1,33.1,0,0,0,521.5,388.9Zm-12.8-34.62c.52-2-4.24,5-3,4.64C505.74,358.91,508.63,354.55,508.7,354.29Z" transform="translate(-440.3 -337.47)"/></svg>