<svg id="Layer_1" data-name="Layer 1" xmlns="http://www.w3.org/2000/svg" viewBox="0 0 61.29 111.02"><defs><style>.cls-1{fill:#101063;}</style></defs><title>icon-07</title><path class="cls-1" d="M504.55,420.64a99.07,99.07,0,0,1,10.9-6.46c2.77,3.31,5.23,6.88,8.21,10h0a.34.34,0,0,0,.51,0,.22.22,0,0,0,.06-.08h0c1.18-2.95,2.45-5.86,3.65-8.8,2.81,1.07,5.7,2,8.46,3.17a.35.35,0,0,0,.48-.27c.54-4.79,0-9.59-.22-14.39-.2-5.13.51-10.4-.16-15.5a.28.28,0,0,0-.09-.27l0,0a.28.28,0,0,0-.43,0c-5.31,5.33-11,10.27-16.08,15.8s-10.22,11.08-15.69,16.31a.31.31,0,0,0,0,.49A.29.29,0,0,0,504.55,420.64Zm11.5-6.82.12-.17A12.15,12.15,0,0,1,517,415C516.7,414.64,516.38,414.23,516,413.83ZM527,415.75c0-.22-.08-.45-.14-.67s-.16-.07-.14,0a8.45,8.45,0,0,1,.17.9l-.11.27a6.37,6.37,0,0,0-.2-.83c0-.09-.15,0-.13.05a6,6,0,0,1,.22,1l-.2.49c-.06-.47-.11-.94-.14-1.42,0-.09-.14-.07-.14,0,0,.56.1,1.12.16,1.67l-.22.52a15.7,15.7,0,0,0-.22-1.79c0-.09-.15-.07-.14,0a17.16,17.16,0,0,1,.24,2l-.17.4a9.94,9.94,0,0,0-.34-1.92c0-.09-.15,0-.13.05a9.74,9.74,0,0,1,.34,2.16l-.1.24c-.08-.63-.22-1.25-.36-1.88,0-.09-.16-.07-.14,0a18.38,18.38,0,0,1,.39,2.12l-.13.33a6.28,6.28,0,0,0-.33-2.13.07.07,0,0,0-.13.05,6.93,6.93,0,0,1,.33,2.38l-.14.35c-.06-.74-.14-1.48-.18-2.22,0-.09-.14-.07-.14,0,0,.83.14,1.65.2,2.48l-.07.16c-.1-.76-.2-1.52-.31-2.28a.07.07,0,0,0-.14,0q.18,1.26.34,2.51l-.09.21c-.1-.81-.22-1.61-.32-2.42a.07.07,0,0,0-.14,0c.11.89.25,1.78.34,2.67l-.13.31c-.06-.9-.22-1.79-.32-2.69a.07.07,0,0,0-.14,0c.12,1,.3,2,.34,3l-.32.77a13,13,0,0,0,0-1.63,3.31,3.31,0,0,0-.17-1.47c0-.08-.17,0-.13.05a3.72,3.72,0,0,1,.16,1.59c0,.39.07.78.06,1.17-.42-1.93-.82-3.87-1.16-5.82-.22-1.22-.39-2.45-.55-3.68-.1-.76.92.24,1.14.35a36.22,36.22,0,0,0,3.54,1.62,5.11,5.11,0,0,1,.11.7Zm.15-.36c0-.13,0-.26-.07-.39l.2.08Zm9-26.61a2.25,2.25,0,0,0-.29.74l-.05,0-.06-.1Zm0,19.49c-.47-.53-1-.95-1.56-1.43.54.43,1,.89,1.55,1.36Zm-.18-4a10,10,0,0,1-1-1.12,8.78,8.78,0,0,1,1,1S536,404.24,536,404.27Zm-.25-13.22,0,0v0l-.13-.05,0-.06Zm-.11-.4.14.07v.14Zm.14-.09-.29-.13-.14-.2h0l.43.17C535.76,390.46,535.76,390.51,535.76,390.56Zm-.38,0,.22.32-.16-.05-.25-.32Zm0,.41-.41-.16h0l.39.13Zm.17.22.24.33v.12l-.3-.11-.38-.52Zm.24-1.23h0Zm-.11,1.85,0-.08.18.07v.09Zm.19.7h0v.08l-.09-.12Zm-.18-.22-.07,0c-.15-.19-.31-.36-.46-.54l.12,0Zm.21.55,0,.21-.17-.21c.07,0,.1-.1,0-.13l-.19-.07-.29-.37.24.1Zm0,.41c0,.13,0,.26,0,.38q-.45-.55-.94-1.07l.52.2Zm-.51,0,.52.63c0,.06,0,.12,0,.18-.24-.3-.48-.59-.74-.88l.18.07Zm.52,1h0a13.85,13.85,0,0,0-1.19-1.3l.17.07Q535.45,393.62,535.94,394.26Zm0,.23s0,.08,0,.11c-.25-.32-.52-.61-.8-.91h0a.07.07,0,0,0,.09,0A9.11,9.11,0,0,1,535.94,394.49Zm-.82-1-.18-.06c-.2-.22-.4-.44-.59-.67l.06,0Zm-.25.05c.37.4.74.8,1.07,1.24,0,.08,0,.15,0,.23-.44-.5-.86-1-1.26-1.53Zm.78-4,.1,0,.09.13v.05l-.25-.1Zm-.16.25h0Zm-.08.12.17.05.12.2-.36-.14Zm-.15.23h0a.07.07,0,0,0,0,.11l0,0-.1,0Zm-.18.27h0a.06.06,0,0,0,0,.09l.13.16-.25-.08Zm-.27.41.07,0,.33.51h0l-.22-.27c-.05-.07-.16,0-.11.08l.07.08-.17-.07h0a.06.06,0,0,0-.06,0l-.08,0Zm.3.66-.14-.05h0l.13.05Zm-.57-.25.14.06,0,0-.2-.07Zm-.1.15.45.16.46.54-.26-.11c-.15-.16-.29-.32-.45-.46s-.15,0-.08.11l.23.24-.53-.19Zm-.26.4c.28.1.56.2.84.31l.32.38-.55-.21,0,0a.07.07,0,0,0-.09,0L534,392Zm-.21.32.75.28c.18.18.34.37.51.56l-.23-.09-.31-.35c-.06-.06-.17,0-.11.08l.13.15-.21-.08,0,0a.05.05,0,0,0-.06,0l-.64-.23Zm-.26.41.54.19a.06.06,0,0,0,0,.1c.14.18.3.35.45.52-.41-.14-.81-.28-1.22-.44Zm-.63-.41.21-.26h0l-.22.33S533.07,392.19,533.07,392.16Zm-.19.23,0-.06s0,.08,0,.13l-.05.08Zm-.22.26.07-.08v.2l-.05.08C532.66,392.79,532.66,392.72,532.66,392.66Zm-.14.17c0,.09,0,.17,0,.26l-.12.19q0-.13,0-.24Zm-.31.4s0,.06,0,.1,0,.13,0,.19l0,.05C532.2,393.45,532.21,393.34,532.22,393.22Zm-.44.5.1-.12a4,4,0,0,1,0,.47l-.11.18C531.76,394.07,531.77,393.9,531.78,393.72Zm2,2.62c.09,0,.11-.12,0-.14a16.19,16.19,0,0,1-2-.66l.18-.29c.89.22,1.77.45,2.67.66.09,0,.1-.12,0-.14l-2.61-.65.47-.74c.64.2,1.29.33,1.94.48.09,0,.11-.12,0-.14-.63-.15-1.26-.29-1.87-.48l.29-.44a12.72,12.72,0,0,1,2.1.57c.08,0,.13-.09.05-.13a12.48,12.48,0,0,0-2.07-.57l.41-.62,1.09.39a.06.06,0,0,0,0,0c.46.61.95,1.2,1.46,1.77,0,.15,0,.3,0,.45-.38-.44-.78-.87-1.13-1.33-.05-.07-.16,0-.11.08.38.51.83,1,1.24,1.46,0,.14,0,.28,0,.42-.11-.14-.23-.28-.35-.41a7.79,7.79,0,0,0-.74-.66c-.07-.06-.15.05-.08.11a7.45,7.45,0,0,1,1.17,1.22s0,.07,0,.1q-.31-.36-.6-.74c-.05-.07-.16,0-.11.08.22.29.46.58.71.86,0,.05,0,.11,0,.16-.18-.21-.37-.41-.53-.63a.07.07,0,0,0-.11.08c.2.26.42.51.64.76a.15.15,0,0,1,0,0c-.24-.29-.47-.58-.71-.85-.06-.07-.17,0-.11.08.29.32.55.66.82,1,0,.18,0,.37,0,.55-.28-.33-.57-.66-.84-1a.07.07,0,0,0-.11.09c.3.39.63.76.95,1.13,0,.14,0,.29,0,.43-.28-.34-.56-.68-.83-1a.07.07,0,0,0-.11.08c.3.4.63.78.94,1.17,0,.13,0,.26,0,.39-.31-.35-.62-.69-.9-1.05a.07.07,0,0,0-.11.08c.32.41.67.79,1,1.18,0,.09,0,.17,0,.26-.21-.23-.42-.46-.62-.7-.06-.07-.16,0-.11.09.23.28.48.55.73.83,0,.05,0,.11,0,.16q-.37-.42-.77-.82c-.06-.06-.17,0-.11.08.31.31.59.64.88,1,0,.19,0,.37,0,.56-.27-.33-.56-.64-.87-.95-.06-.06-.17,0-.11.08a13.77,13.77,0,0,1,1,1.08c0,.08,0,.15,0,.22-.26-.27-.54-.54-.82-.8-.06-.06-.15,0-.08.11l.06.06a.07.07,0,0,0-.05.12,10.74,10.74,0,0,1,.89.93c0,.11,0,.21,0,.32l-.2-.2c-.27-.29-.56-.57-.85-.85a.07.07,0,0,0-.07,0l-.12-.11c-.06-.06-.15.05-.08.11.34.31.67.63,1,1,.12.12.21.26.32.39s0,.23,0,.34a6.27,6.27,0,0,0-.85-.84c-.07-.06-.15.05-.08.11a6.16,6.16,0,0,1,.94.94v.25a7.28,7.28,0,0,0-1-1c-.07-.05-.16.06-.08.11a8.06,8.06,0,0,1,1.13,1.07c0,.06,0,.13,0,.19a10.37,10.37,0,0,0-.92-.93c-.07-.06-.15.05-.08.11a9.58,9.58,0,0,1,1,1s0,.07,0,.1a11.46,11.46,0,0,0-1.39-1.31c-.07-.06-.15.05-.08.11l.27.22a.07.07,0,0,0,0,.09,9.3,9.3,0,0,0,1.24,1.43c0,.09,0,.17,0,.26-.42-.41-.8-.87-1.25-1.25-.07-.06-.15.05-.08.11.48.42.88.91,1.34,1.35,0,.06,0,.12,0,.19a15.94,15.94,0,0,0-1.41-1.39c-.07-.06-.15.05-.08.11a15.3,15.3,0,0,1,1.5,1.5v.17l-.85-.83c-.06-.06-.15.05-.08.11l.94.92v.12c-.36-.37-.72-.75-1.1-1.11-.06-.06-.15,0-.08.11.41.39.8.8,1.19,1.2v.11c-.37-.36-.73-.73-1.09-1.1-.06-.06-.17,0-.11.08.4.41.79.82,1.21,1.21v.2c-.34-.33-.69-.65-1-1-.06-.06-.15,0-.08.11.37.37.76.71,1.12,1.08V407c-.45-.41-.91-.81-1.38-1.2-.07-.06-.15.05-.08.11.5.41,1,.84,1.47,1.28v.12c-.42-.37-.84-.73-1.23-1.12-.06-.06-.17,0-.11.08.43.43.89.84,1.35,1.24v.13c-.54-.51-1.08-1-1.65-1.49-.07-.06-.15.05-.08.11.6.5,1.18,1,1.74,1.58V408a19.56,19.56,0,0,0-1.89-1.62c-.07-.05-.16.06-.08.11l.12.1s-.09.06,0,.1c.57.6,1.27,1.06,1.82,1.68a.07.07,0,0,0,.1,0v.18a14.88,14.88,0,0,0-2-1.69c-.07-.05-.16.06-.08.11a15,15,0,0,1,2.1,1.75h0c0,.07,0,.14,0,.21a13.75,13.75,0,0,0-2-1.61c-.07,0-.16.06-.08.11a14.79,14.79,0,0,1,2.08,1.7c0,.08,0,.16,0,.25-.5-.42-1-.86-1.5-1.27a.07.07,0,0,0-.08.11c.55.43,1.06.9,1.59,1.35,0,0,0,.09,0,.13-.54-.48-1.1-.93-1.63-1.41-.07-.06-.15.05-.08.11.56.51,1.15,1,1.72,1.5,0,.13,0,.27,0,.4a18.26,18.26,0,0,0-2.24-1.9c-.07-.05-.16.06-.08.11a18.29,18.29,0,0,1,2.33,2v.17a15.38,15.38,0,0,0-2.16-1.74c-.07,0-.16.06-.08.11a15.67,15.67,0,0,1,2.26,1.82c0,.09,0,.18,0,.27a12,12,0,0,0-2.43-1.87c-.08,0-.13.08-.05.13a11.86,11.86,0,0,1,2.49,1.92c0,.06,0,.11,0,.17L534.58,410c-.07-.06-.15.05-.08.11l1.83,1.55h0s0,0,0,0c-.66-.56-1.34-1.1-2-1.67-.07-.06-.15.05-.08.11.69.59,1.4,1.15,2.09,1.74,0,.15,0,.3,0,.45-.73-.65-1.59-1.14-2.31-1.81-.06-.06-.15.05-.08.11.75.69,1.65,1.19,2.4,1.88h0c0,.08,0,.16,0,.23a22.21,22.21,0,0,0-3-2.07c-.08,0-.13.08-.05.13a22.72,22.72,0,0,1,3.08,2.12c0,.22,0,.43,0,.65a10.3,10.3,0,0,0-3.27-2.12c-.08,0-.14.1-.05.13a10.26,10.26,0,0,1,3.32,2.17h0q0,.59,0,1.18a.05.05,0,0,0,0,0,7,7,0,0,0-3.26-2.07c-.09,0-.1.12,0,.14a6.83,6.83,0,0,1,3.17,2,.07.07,0,0,0,.12,0c0,.14,0,.29,0,.43a12,12,0,0,0-3.16-2,.07.07,0,0,0-.05.13,11.89,11.89,0,0,1,3.2,2.07c0,.06,0,.11,0,.17a13.72,13.72,0,0,0-3.06-1.84c-.08,0-.13.09-.05.13a13.5,13.5,0,0,1,3.1,1.89s0,.09,0,.14,0,.09,0,.14c-1.06-.74-2.21-1.35-3.29-2.06-.08,0-.16.06-.08.11,1.11.72,2.28,1.34,3.36,2.1a1.56,1.56,0,0,1-.14.48c-1-.76-2.05-1.39-3.08-2.1-.07,0-.16.06-.08.11,1,.71,2.1,1.34,3.09,2.1a.73.73,0,0,1-.31.25c-.89-.53-1.73-1.15-2.62-1.68-.08,0-.16.06-.09.11.87.51,1.67,1.11,2.53,1.63l-.18,0c-.37-.26-.74-.5-1.13-.73a2.28,2.28,0,0,0-1.31-.44.07.07,0,0,0,0,.14,3,3,0,0,1,1.67.69c.16.1.31.21.46.32a16.77,16.77,0,0,1-2.7-1.09c-3.54-1.31-7.15-2.2-10.24-4.47l.2-.35a.06.06,0,0,0,0,.08c.73.25,1.48.46,2.19.78.08,0,.13-.09.05-.13-.71-.32-1.46-.52-2.19-.78a.07.07,0,0,0-.08,0l.2-.35a9.89,9.89,0,0,1,2.85.82.07.07,0,0,0,.05-.13,10.25,10.25,0,0,0-2.83-.82l.28-.49c.36.07.93.25,1,.26a10.73,10.73,0,0,1,2,.8c.08,0,.13-.09.05-.13a20.94,20.94,0,0,0-2.79-1l-.14,0,.11-.2a.06.06,0,0,0,.09,0c.08-.27,3.09.74,3.44.88a.07.07,0,0,0,.05-.13c-.33-.14-2.84-1.06-3.47-.91l.3-.53A16.84,16.84,0,0,1,526,410c.08,0,.14-.1.05-.13a18.43,18.43,0,0,0-2.44-.72l.26-.46a6.93,6.93,0,0,1,2.5.71c.08,0,.14-.1.05-.13a7.52,7.52,0,0,0-2.48-.72l.1-.18c.37-.2,1.23.13,1.54.22s.87.28,1.31.4c.08,0,.14-.1.05-.13-.6-.17-1.19-.38-1.8-.54a2.63,2.63,0,0,0-1-.14l.22-.38a6.58,6.58,0,0,1,2.25.37c.08,0,.14-.1.05-.13a7,7,0,0,0-2.22-.39l.33-.58a19.54,19.54,0,0,1,2.11.37.07.07,0,0,0,0-.14c-.68-.09-1.36-.34-2-.37l.32-.56a16.67,16.67,0,0,1,2.18.57c.09,0,.1-.12,0-.14a19.79,19.79,0,0,0-2.13-.56l.09-.16a6.68,6.68,0,0,1,2,.44c.08,0,.14-.1.05-.13a7.59,7.59,0,0,0-1.92-.45l.12-.2c.71.19,1.43.29,2.14.49.09,0,.14-.1.05-.13-.7-.19-1.42-.29-2.12-.49l.13-.21A11.16,11.16,0,0,1,528,406c.08,0,.14-.09.05-.12a11.15,11.15,0,0,0-2.19-.59L526,405a6.12,6.12,0,0,1,1.79.37c.08,0,.14-.1.05-.13a6.4,6.4,0,0,0-1.76-.38l.26-.44c.66.14,1.3.3,1.95.49.08,0,.14-.1.05-.13-.64-.19-1.28-.35-1.93-.49l.29-.49,2,.56c.09,0,.14-.1.05-.13l-2-.56.37-.62c.62.25,1.28.41,1.9.65a.07.07,0,0,0,.05-.13c-.62-.24-1.27-.4-1.88-.64l.15-.25a13.31,13.31,0,0,1,2.12.72c.08,0,.13-.09.05-.13a13,13,0,0,0-2.1-.71l.27-.46a10.53,10.53,0,0,0,2.12.6c.09,0,.11-.12,0-.14a10.53,10.53,0,0,1-2.07-.59l.17-.29c.74.27,1.5.47,2.25.73.08,0,.14-.1.05-.13-.74-.26-1.49-.45-2.23-.72l.18-.3a11,11,0,0,1,2.14.59c.08,0,.13-.09.05-.13a10.77,10.77,0,0,0-2.12-.59l.21-.35c.75.28,1.52.54,2.29.76.09,0,.14-.11.05-.13-.77-.21-1.53-.47-2.28-.75l.36-.6a20,20,0,0,0,2.56.75c.09,0,.14-.1.05-.13A20.79,20.79,0,0,1,529,400l.36-.58a20.66,20.66,0,0,1,2.21.73c.08,0,.14-.1.05-.13a21.44,21.44,0,0,0-2.18-.73l.2-.32c.64.22,1.27.48,1.91.68.08,0,.14-.1.05-.13-.64-.2-1.26-.45-1.89-.67l.33-.52a10.91,10.91,0,0,1,1.63.84c.08,0,.13-.09.05-.13s-.72-.46-1.22-.69a13,13,0,0,1,1.34.5c.08,0,.13-.09.05-.13a16.18,16.18,0,0,0-1.71-.62l.11-.17a14.13,14.13,0,0,1,1.8.76.07.07,0,0,0,.05-.13,15.68,15.68,0,0,0-1.77-.75l.14-.23c.64.24,1.29.44,1.92.72.08,0,.13-.09.05-.13-.62-.28-1.26-.48-1.89-.71l.1-.16a7.21,7.21,0,0,1,1.73.7c.08,0,.13-.09.05-.13a7.55,7.55,0,0,0-1.71-.69l.07-.11a10.74,10.74,0,0,1,2,.83c.08,0,.13-.08.05-.13a10.67,10.67,0,0,0-2-.82l.11-.18a9.71,9.71,0,0,1,1.78.63c.08,0,.13-.09.05-.13a9.65,9.65,0,0,0-1.76-.63l.27-.44a9.49,9.49,0,0,0,2,.71c.08,0,.14-.1.05-.13a9.6,9.6,0,0,1-2-.7l.27-.43A17.11,17.11,0,0,0,533.76,396.34Zm2.18,5.26h0l-.06-.07Zm-4.32-7.32a.51.51,0,0,0,0,.07l0,0Zm0,.19s0,0,0,0h0S531.59,394.49,531.59,394.48Zm-.08-.44a4.56,4.56,0,0,1-.08.54c0,.05,0,.08.07.07l-.08.13a3.2,3.2,0,0,0-.11-.49h0Zm-1.07,1.77c0-.17,0-.34.06-.51l.18-.23c0,.14-.06.27-.08.41s.12.11.14,0,.07-.34.1-.51c0,.05,0,.1,0,.16s.13.11.14,0a4.1,4.1,0,0,0,0-.48l.14-.17s0,.08,0,.12,0,.15,0,.19l0,0a.42.42,0,0,0,0,.21.07.07,0,0,0,.13,0c0-.07,0-.13,0-.19h0s0,0,0,0,0-.21,0-.31c0,.1.05.18.09.17s0,.15.05.13c-3.49,5.5-6.8,11.15-9.95,16.81a.27.27,0,0,0,0,.28c.24,2,.54,4,.9,6,.21,1.18.31,4.16,1.12,5-2.18-2.3-4-4.91-6-7.41a12.81,12.81,0,0,0-1.19-2l.29-.39c.62.86,1.05,1.85,1.65,2.73,0,.07.16,0,.11-.08-.61-.88-1-1.89-1.68-2.76l.32-.43a11.08,11.08,0,0,1,.75,1.29c.28.49.53,1,.84,1.47,0,.07.16,0,.11-.08-.43-.63-.76-1.33-1.15-2a7.73,7.73,0,0,0-.48-.79l.11-.15c.46.84,1,1.66,1.46,2.48,0,.08.16,0,.11-.08-.51-.83-1-1.66-1.48-2.51l.14-.19c.49.81,1,1.61,1.46,2.43,0,.08.17,0,.13-.05-.48-.84-1-1.67-1.49-2.5l.13-.17c.38.75.9,1.42,1.25,2.19,0,.08.16,0,.13-.05-.36-.79-.91-1.48-1.29-2.26l.21-.27c.37.75.87,1.43,1.21,2.2,0,.08.16,0,.13-.05-.35-.79-.88-1.48-1.24-2.26l.15-.19c.32.68.7,1.34,1,2,0,.08.16,0,.13-.05-.31-.72-.71-1.39-1-2.1l.17-.22c.28.56.58,1.1.82,1.67a.07.07,0,0,0,.13-.05c-.25-.59-.56-1.16-.85-1.74l.19-.24c.3.66.64,1.29.93,2a.07.07,0,0,0,.13-.05c-.29-.69-.65-1.35-1-2l.05-.07a18.43,18.43,0,0,1,.83,1.7c0,.08.16,0,.13-.05a19.08,19.08,0,0,0-.86-1.77l.09-.11c.3.56.59,1.13.84,1.72a.07.07,0,0,0,.13-.05,19.21,19.21,0,0,0-.87-1.78l.13-.16a6.16,6.16,0,0,1,.73,1.62.07.07,0,0,0,.13-.05,6,6,0,0,0-.77-1.68l.21-.25q.3.63.57,1.27a.07.07,0,0,0,.13-.05c-.19-.45-.38-.9-.6-1.34l.27-.33.62,1.5a.07.07,0,0,0,.13-.05l-.65-1.57.07-.08a13.45,13.45,0,0,1,.56,1.28.07.07,0,0,0,.13-.05,12.55,12.55,0,0,0-.59-1.34l.33-.4.49,1.18a.07.07,0,0,0,.13-.05l-.52-1.25.07-.09a3.23,3.23,0,0,1,.34,1,.07.07,0,0,0,.14,0,3.54,3.54,0,0,0-.38-1.08l.25-.3c.08.4.29.76.4,1.16,0,.09.15,0,.13-.05a7.88,7.88,0,0,1-.41-1.26l.09-.11c.12.37.25.73.34,1.11,0,.09.16.07.14,0-.1-.41-.24-.81-.38-1.21l.13-.15c.11.35.22.71.31,1.07,0,.09.16.07.14,0-.1-.4-.22-.79-.34-1.18l0,0a8.14,8.14,0,0,1,.34,1c0,.09.16.07.14,0a8.5,8.5,0,0,0-.37-1.12l.35-.43a7.32,7.32,0,0,1,.22.91c0,.09.15.07.14,0s-.08-.4-.12-.6a6.9,6.9,0,0,1,.18.73c0,.09.15.07.13,0a7.44,7.44,0,0,0-.34-1.24l.52-.64c.09.39.21.78.28,1.18,0,.09.15.07.14,0-.06-.35-.16-.69-.25-1a3.77,3.77,0,0,1,.25.81c0,.09.15.07.14,0a4.86,4.86,0,0,0-.37-1.13l.32-.39c.08.38.16.76.22,1.14a.07.07,0,0,0,.14,0c-.06-.42-.15-.84-.24-1.26l.06-.07c.06.31.12.61.16.93a.07.07,0,0,0,.14,0c0-.36-.11-.7-.18-1l0,0a2.28,2.28,0,0,1,.23,1c0,.09.14.07.14,0a2.3,2.3,0,0,0-.27-1.1l.69-.87a7.35,7.35,0,0,1,.17,1,.07.07,0,0,0,.14,0,7.83,7.83,0,0,0-.2-1.16l.36-.45A4.41,4.41,0,0,0,525,404c0,.09.15,0,.13-.05a3.76,3.76,0,0,1-.19-1.23l.31-.42a3,3,0,0,0,.21,1,.07.07,0,0,0,.13-.05,2.56,2.56,0,0,1-.21-1.11l.35-.47a7.15,7.15,0,0,0,.11.94c0,.09.15.07.13,0a6.2,6.2,0,0,1-.12-1.06s0,0,0,0l.08-.11c0,.28.07.56.09.85,0,.09.14.07.14,0,0-.33-.08-.66-.11-1l0-.05.14-.19c0,.35.08.71.14,1.06,0,.09.15.07.14,0-.06-.38-.12-.77-.15-1.15,0,0,0,0,0,0l.23-.31c0,.31.06.62.08.92,0,.09.14.07.14,0,0-.36-.05-.71-.1-1.07l0-.06c0,.32.08.64.13,1a.07.07,0,0,0,.14,0c0-.37-.09-.74-.15-1.1l.3-.4a4.91,4.91,0,0,1,0,.81c0,.09.13.11.14,0a5,5,0,0,0-.06-1l.13-.18c0,.25,0,.51.06.77,0,.09.14.07.14,0,0-.31,0-.62-.06-.93l.25-.33c0,.15,0,.31,0,.47s.13.11.14,0,0-.44,0-.66l.19-.26c0,.23.07.47.11.7s.16.07.14,0a6.15,6.15,0,0,1-.12-.86l.12-.16c0,.15,0,.29,0,.44a.07.07,0,0,0,.14,0c0-.2,0-.39-.06-.59l.21-.28a3.55,3.55,0,0,1,.06.68c0,.09.13.11.14,0a4,4,0,0,0-.08-.84l.15-.2.07.45a.07.07,0,0,0,.14,0l-.09-.59.15-.19a2.61,2.61,0,0,1,0,.36c0,.09.13.11.14,0a3.12,3.12,0,0,0,0-.55l.14-.18a4,4,0,0,1,0,.61.07.07,0,0,0,.14,0,4,4,0,0,0,0-.79l.14-.18a4,4,0,0,1,0,.47.07.07,0,0,0,.14,0,5.69,5.69,0,0,0,0-.67l.1-.13c0,.14,0,.27,0,.41a.07.07,0,0,0,.14,0c0-.21,0-.42.06-.63h0c0,.15,0,.3,0,.45a.07.07,0,0,0,.14,0c0-.22,0-.45,0-.67l.09-.11,0,.29A.07.07,0,0,0,530.44,395.81Zm-12.15,10.71c3.82-4.22,7.9-8.14,12-12.07q-2.1,2.64-4.08,5.37c-3.38,4.67-7.33,8.88-10.68,13.57l-.08,0c-2.76,1.5-5.54,3-8.21,4.63Q512.92,412.44,518.29,406.52ZM524,404.1l.19.81c0,.09-.12.1-.14,0-.06-.27-.13-.54-.19-.81C523.89,404,524,404,524,404.1Zm12.28,10.29c.07.06,0,.17-.08.11a13.61,13.61,0,0,0-3.2-2,.07.07,0,0,1,.05-.13A13.76,13.76,0,0,1,536.33,414.39Zm-3.3-2.56c1.06.81,2.38,1.2,3.29,2.21.06.07,0,.15-.11.08-.9-1-2.22-1.38-3.27-2.19C532.87,411.88,533,411.77,533,411.82Zm.3-.76a15.34,15.34,0,0,1,3,2c.07.05,0,.16-.08.11a15.34,15.34,0,0,0-3-2C533.19,411.15,533.24,411,533.32,411.06Zm-1.55-38.47c.42-2.9-1.22-5.72-2.46-8.21-.21-.43.43-.81.65-.38,1.36,2.72,3,5.65,2.54,8.79C532.43,373.27,531.7,373.06,531.77,372.59Zm-9.5-17.3a18.44,18.44,0,0,0-5.4-7.33c-.37-.31.16-.84.53-.53a19.2,19.2,0,0,1,5.6,7.67M512,341c.25.41-.4.79-.65.38a23.38,23.38,0,0,0-5.44-6.42c-.38-.3.15-.82.53-.53A24,24,0,0,1,512,341Zm-12.59-12c-2.55-2.11-4.44-4.89-7-7-.37-.31.16-.83.53-.53,2.55,2.11,4.44,4.89,7,7C500.27,328.73,499.74,329.26,499.37,329Zm-21.25-14.35c2.49,1.23,5.44,1.63,8,2.76.44.2.06.84-.38.65-2.52-1.13-5.45-1.52-7.94-2.75a8.5,8.5,0,0,1,1.75,4.93c0,.48-.74.48-.75,0a7.35,7.35,0,0,0-2.81-5.68l0,0a.39.39,0,0,1,0-.6l.06,0h0a.28.28,0,0,1,.23,0h.31a.31.31,0,0,1,.2,0c3.46.06,6.92.37,10.31-.5a.38.38,0,0,1,.2.72A32.62,32.62,0,0,1,478.12,314.61Z" transform="translate(-475.78 -313.31)"/></svg>