<svg id="Layer_1" data-name="Layer 1" xmlns="http://www.w3.org/2000/svg" viewBox="0 0 89.11 80.47"><defs><style>.cls-1{fill:#fff;fill-rule:evenodd;}</style></defs><title>icon-04</title><path class="cls-1" d="M584.16,414.34c-5.41.37,1.71-1.26.48-3.31-.88-1.48-3.68,2.11-4,1.94s.62-5.05.55-5.29a.21.21,0,0,0-.37,0c-1,2.1-3,1-3,2.43,0,.64-.29,1.17-.46.81-.4-.85-.58,0-1.8.91-4.57,3.44-3.21.75-3.21,3.94,0,.33-.47,0-.55-.23-.18-.62-.28-.52-3.44,2.11-.48.4-.19.78,0,5,0,.8-1.32,1.21-2.3,2.14-7,6.63-4.57,5.75-7.45,2.13-4.58-5.76-12.46-11.74-19.69-13a39.9,39.9,0,0,0-13-.05,95.83,95.83,0,0,0-13.39,5.51c-5.29,2.58-7.27,2.72-12,11.75-5.3,10.1-3.24,21.57,1.09,31.54,6,13.81,16.21,23.75,31.33,25.37,2.66.28,6.13-1.23,7.66-1.69,1-.3,1.92-.77,2.9-1.09,1.18-.39,2.4-.65,3.57-1,.36-.12,6.24-2.45,7.19-3.48a46.43,46.43,0,0,0,6.19-6.18c2.87-3.32,4.16-9.09,4.85-11,1.84-5.12,1-13.1,0-18.4-3.22-16.2-6.84-11.58-.41-16.73,4.63-3.7,4.79-3.91,5.82-3.87,1.22,0,2.46-.25,3.68-.25,2,0,2-.53,3-1.35,3-2.46,1.6-1.48.91-2.51-.28-.42,1.25-.23,1.61-.14.7.18.44-.12,3.68-3.14.14-.12,2.83-2.46,2.89-2.59C586.64,413.91,585.37,414.25,584.16,414.34Zm-4-5.4c.38-.19.23.08-.12,4.24-.05.62-.36,1-2,2.27-.31.25-.22,0-.22-.29C577.79,409.47,578.09,409.94,580.15,408.94Zm-3.83,2.73c.15-.09.39-.28.43-.24.49.41.71,4.12.67,4.48-2.29,2.35-1.79,1.42-1.71-1.88C575.75,412.85,575.35,412.22,576.33,411.67Zm-3.48,2.79c0-.68,1.53-1.39,1.89-1.61.86-.53.63,4.85.27,5.18C572.4,420.44,572.81,420.75,572.84,414.46Zm-2.05,1.78c1.16-1,1.16.71,1.6,3.11.07.37.25.7.08.82-5.4,4.08-2.9,2.87-4-1.74C568.29,417.88,568.83,417.85,570.79,416.24Zm-12.77,11c.28.36,2.21,3,1.78,3.29-4.23,2.72-3.75,2.29-4.29,2.85-.93,1-1-.25-3.8-4.16-3-4.11-6.47-7.28-11.32-8.22-17.52-3.37-13.42,4.46-16-5.6C524.08,414.35,543.61,408.72,558,427.21Zm-20.39,28c-.54.08-.43-.38-1.31-3.05-.23-.69.67-.56.74-.32C537.91,454.63,538.08,455.1,537.64,455.17Zm.28-3.5c.57.22,1.23.32,1.47,1,.06.18.18.46.09.59-1.15,1.68-1,2-1.88-1.31C537.53,451.72,537.57,451.53,537.91,451.67Zm-1.85-.85c0-.06.33-.08.34,0S536,450.93,536.06,450.82Zm-.81-3.35a.21.21,0,0,1,.37,0c1,1.66.06,2.09-.1,1.59C535.1,447.77,535.09,447.83,535.25,447.47Zm.13,3.29c-.44.53-2.83-1.09-1-2.77C534.81,447.59,535.56,450.56,535.38,450.77Zm1-3.17c.07-.06.12-.11.13-.1.29.21.76.5.54.75C536.64,448.74,536.19,447.79,536.41,447.6Zm-.77-2.16a.26.26,0,0,0-.26-.23c-.65,0,.48,1.84-.35,1.49-.44-.19-.19-.51-.35-.87-.07-.14-.23-.3-.39-.24-.66.22.67,1.25-.26,2.14a2.18,2.18,0,0,0,.86,3.78,1.15,1.15,0,0,1,1.14,1c.36,1.81,1.19,3.2.3,2.77-.53-.26-1.19-.32-1.46-1,0-.06-.13-.09-.25-.12-.79-.17.1,1.6,2.24,1.91.1,0,.44.74.63.91a.23.23,0,0,0,.38-.13c.09-.46-.07-.32-.16-.68s.35-.36.53-.2.17.38.29.53a.23.23,0,0,0,.41-.09c.12-.52-.74-.52.1-1.47,1.42-1.62,1.19-3.36-.89-3.9-1-.26-1-.14,2.19-2.85.91-.76.94,2,1.18,3.53,1.07,6.61-4.12,8-6,6-5.79-6.14-4.51-14-.61-13.81.93.06,2.06-.89,4.61,1.43.62.56-.28,1.14-1,1.88-.39.43-.76.69-1.19,0C537,446.75,536.11,447.65,535.64,445.44Zm-17.22-20.2c2.5-2,7.11-3.64,7.34-3.09.15.36,2.42,6.39,1.82,6.56-6.39,1.83-13.71,10.74-12.23,20.82,1.18,8,4,5.23-4.38,8-.52.17-.68-.06-.82-.42-.33-.8-1.93-5.4-1.6-5.76,0,0,0,0,0,0C507.62,443.06,506.53,434.82,518.42,425.25Zm18.3,34.25c2.42-.63,1.57-1.24,3.38,4.31.2.6,1.19,1.64.07,1.88-.11,0-3.42.7-3.53.67-3.58-.9-7.65-2.43-9.71-5.57-1.83-2.79-3.07-6.41-2.61-6.57,4.91-1.64,5.27-1.83,5.46-1.21.86,2.86,1.88,5,5.31,6.89C535.45,460.08,536.16,459.64,536.72,459.49Zm-1.48-.87c.19-.29.65.11.63.34s-.43.42-.47.38C535.12,459,535,459,535.24,458.63Zm7-9.11c5.4-1.69,4.56-2.89,5.2,2.43.69,5.68-.91,10-5.84,13.17-.62.39-.6-.11-1.17-1.51-.08-.19-.19-.37-.25-.57-.68-2-1.43-4.24-.65-4.53,1.41-.53,2-1.79,2.32-3.17C542.71,452.31,541.07,449.89,542.28,449.51Zm-.47,16.22c4.09-2,6.55-7,6.33-11.23-.43-8.36-2.23-6.19,3.91-8.65.57-.23.59-.13.81,1.78,2.1,18.39-9,25.25-9.67,23.33C541.4,466.07,541.32,466,541.81,465.73Zm-24.27-9.36a43.86,43.86,0,0,1,4.82-1.78c.83-.3.95-.23,1.26.57,2.47,6.4,4.55,9.8,11.59,11.6,1.67.43,2.33,0,5.46-.51.38-.07.33,0,2.1,4.7C543.38,472.55,522.32,475.91,517.54,456.37ZM531,447.62s.16.07.16.11c0,1.25.3,1-1.3,1.66h0a.83.83,0,0,1-.11-.31C529.8,448.08,530,447.84,531,447.62Zm.48-1.46c-.09.93-1.14,1.34-1.38,1.07S531.52,445.48,531.45,446.16Zm-.59,3.6c.34-.1.47.61.57,1.15,0,.18-1.1.5-1.3.53s-.28-.14-.33-.26C529.36,450.08,530,450,530.87,449.76Zm3.42,8.69c-.17,0-1-.63-1.11-.74s.61-.54.78-.63.95.83,1.06,1S534.58,458.38,534.29,458.46Zm-1.69-1.32a1.57,1.57,0,0,1-.77-1,1.84,1.84,0,0,1,1.07-.64c.22,0,.82.67.8.84S532.87,457.19,532.6,457.14Zm-.05-2.4c-.17.3-.58.46-1,.69s-.81-.95-.7-1.11a1.61,1.61,0,0,1,1.2-.58C532.21,453.73,532.66,454.55,532.55,454.74Zm-1.74-1.3c-.36.2-.83-1-.73-1.18.26-.43,1.32-.6,1.45-.35C532,452.77,532.14,452.7,530.81,453.44Zm1.09-8.66c.16-.09.21.24,0,.32C530.82,445.51,530.52,445.6,531.9,444.78Zm-.08-.74c-2.79,1.32-2.45,4.79-2.45,7.62a.44.44,0,0,1-.24.32c-4.91,1.71-5.24,1.85-5.32,1.42-2.14-12.14,2.19-14.13,6.71-16.72a.5.5,0,0,1,.45.17c3.22,6.92,3,6.69,2.35,6.57C532.88,443.32,532.32,443.79,531.82,444Zm-1.38-8.13c-5.36,3.36-9,5-7.3,17.65.06.46-.13.47-5.17,2.08-.69.22-.6.46-2-6.2-2.07-9.68,6.25-18.69,11.84-20.24.54-.15.38-.37,2.8,6.46C530.6,435.71,530.51,435.86,530.44,435.91ZM517,456.59c2.38,10.94,12.2,18.29,25.73,15.63.55-.11.53.59,1.89,4.69.26.78.23.57-4.88,1.85a24.87,24.87,0,0,1-12.18-1.13c-5.75-1.94-6.08-2.67-8.22-5-4.14-4.51-8-12.44-8.62-14.24C510.58,458,516.88,455.95,517,456.59Zm26.83,15.28c1.63-.82,3.91-1.2,5.85-5,2-4,3.71-6.07,3.89-15.08.14-7.25-2.62-5.58,4.35-7.89,1.29-.43,1.39,10.78,1.05,15.29-.11,1.41-2.36,10.42-7.81,14.69-1,.75-5.76,4.25-6.12,3.14C543.47,472,543.49,472.06,543.85,471.88Zm14-28.65c-4,1.46-4.59,1.69-4.59,1.69-.42.16-.5-.7-2.38-4.64-.43-.91-.13-.7,4.13-4.06.91-.72,2.93,6,3.12,6.6C558.19,443,558,443.17,557.84,443.22Zm-5.61,2.09c-5,2-4.87,2.19-5.27,1.14-.71-1.9-1.39-2.61-1-3,4.18-3.44,4.07-3.49,4.39-2.81C552.34,444.93,552.62,445.16,552.23,445.31Zm-5.85,2.25c-5.66,2.19-4.5,1.43-5.13.45-.35-.53.33-.88,3.65-3.72.38-.32.32.06.4.23C546.65,447.33,546.8,447.4,546.38,447.56Zm-10.07-4.35c-1.67-.15-1.78.4-2.28-.65-.1-.2-2.73-5.76-2.69-6,.18-1,5.3-2.14,8.58,1,3.9,3.69,5.09,4.31,3.38,5.64-2.65,2.06-2.82,2.33-3.14,2.08C537.93,443.44,538.39,443.4,536.31,443.21Zm5.57-4.85a12.19,12.19,0,0,0-4-3,8.45,8.45,0,0,0-6.47.12.63.63,0,0,1-.55-.28c-2.2-5.71-2.37-6.22-2-6.32,5.81-1.71,10.66-1.3,17.8,6,2.6,2.67,2.63,3.3,1.81,3.9C542.71,443,546.32,442.51,541.88,438.36Zm-12.94-10.22c-.47.25-.74.16-.92-.4-2-6.23-2.33-6-1.61-6.31,3.75-1.35,8.52-.8,12.47,0,6.07,1.23,7,1.5,14,10.22.28.36,1.54,2.3,1.19,2.61-4,3.39-4.36,3.76-4.56,3.31C548,434.16,537.11,423.87,528.95,428.14Zm-6.83-12.5c1.57-.62,1.64-.66,1.77-.23,2.54,8.4,2.18,4.42-4.31,8.37-18.84,11.44-10,34.09-10,34.09-5.85,1.83-5.53,1.67-5.64,1.24-2.86-10.57-3.69-12.28-2.85-17.36.68-4.11,1.22-6.91,3.1-10.32a24.62,24.62,0,0,1,6.67-9.3C514.14,419.29,514.1,418.79,522.11,415.65Zm13,71.62c-4.32.78-10-1.54-10.39-1.66-20.61-6.93-37.61-44.15-17.81-62.68,1.13-1.06,5.34-3,5.18-2.69-.8,1.45-8.43,5.62-11.29,20.52-1.09,5.66,0,9.51,2.22,17,.77,2.63,1.81,6.28,7.44,14.82a29.68,29.68,0,0,0,21,13.46,30.32,30.32,0,0,0,6,.48C538.4,486.61,536,487.11,535.09,487.27Zm7.1-2.32c-1.51.92-13.92,2.86-24.31-5.22-2.6-2-3.48-2.38-5.45-5-1-1.38-7.58-12.2-8.07-14.34-.14-.59.78-.66,4.06-1.58,1.45-.41,1.55-.94,2,0,2.29,5.24,6.6,13.27,11.51,16.92a28,28,0,0,0,18.1,3.46c6.11-.87,4.3-3.4,6.65,3.75C546.91,483.8,544.22,483.71,542.19,484.95Zm23.3-34.82c.75,9,.5,9.94-2.47,18.43a18.42,18.42,0,0,1-5,7.78c-5.42,5.48-5.34,4.66-7.77,5.82-.36.17-3,1.25-3.19.8-2.38-6.63-2.4-4.12,1.81-6.81a20.63,20.63,0,0,0,5.07-4.24c2-2.5,3-4.9,4.94-10,.9-2.33.67-9.86.57-11.34-.35-5.28-.3-5-.54-6.39-.18-1-.34-.78,4.66-2.25C564.51,441.69,565.41,449.24,565.49,450.13Zm-6.2-7.37c-1,.43-.41.53-2.37-4.81-.46-1.24-1.19-2.33-.88-2.59,4.81-4,4.51-3.84,4.74-3.15C564.74,443.92,564.81,440.22,559.29,442.76Zm-4.95-8.08c3.21-2.3,3.91-2,10.9-8.46,4.62-4.27,2.76-2.19,5.23-4,5.24-3.89,12.89-11.6,13.6-10.86s.32.41-8.1,7.31C508.71,473.86,545.72,440.45,554.34,434.68Zm21-10.93c-6.5.63-5.35.3-2.56-1.73.18-.13,4.24,0,4.34.23S575.38,423.92,575.33,423.75Zm5-4.18c-.36.27-3.46-.22-3.52.54,0,.33,1.18.85,1.36,1.15.37.61-1.15.28-2.09.23-2.94-.14-3.73.8,1.58-3.82.63-.55,4.65-.47,4.73-.26S580.55,419.42,580.34,419.57Zm4.81-4.44c-2,2-1.3,1.58-5.76,1.62a.2.2,0,0,1-.13-.35c2.64-2.22,2.14-1.31,5.61-1.74.17,0,.34,0,.41.13S585.26,415,585.15,415.14Z" transform="translate(-497.3 -407.54)"/></svg>