<svg id="Layer_1" data-name="Layer 1" xmlns="http://www.w3.org/2000/svg" viewBox="0 0 62.79 40.99"><defs><style>.cls-1{fill:#fff;fill-rule:evenodd;}</style></defs><title>icon-03</title><path class="cls-1" d="M606.5,356.44c0-2.88-.55-.44-.11-18.29.06-2.3.21-4.91.25-6.52,0-.79-1.53-2-2.8-1.89-4.41.49-5.52-.3-5.66,1.43L597,357c-2.09,0-2.52,0-2.57-.35-1.5-11.09.54-17.91-.4-18.78a3.54,3.54,0,0,0-2.21-1.26,28.73,28.73,0,0,0-4.9-.16c-1.62.08-.77,14.78-.78,19.39,0,.82-.28,1.3-.55,1.3s-3.08.12-3.1-.18c-.28-5.14-.14-11.62-.09-12.71,0-.34-1.91-1.75-2.2-1.73-6.81.3-5.86-2.54-5.81,10.33,0,4,.23,4.7-.18,4.71-3.71.09-3.11,1.13-3.1-6.77,0-.69-.41-.83-.92-1.48a2.39,2.39,0,0,0-1.93-.73c-2.65-.06-3.88-.4-4.41.14s-.25,5.53-.18,8.53c0,.74-4.55.53-8.05.39-1.32-.06-1.37.56,0,.57,10.22.08,36.87-.94,60.24-.3a.31.31,0,0,0,.17-.06C617.68,356.77,606.5,357.81,606.5,356.44Zm-41.61,1.19c-.39-.14-.8,0-.88-.56a31.12,31.12,0,0,1-.07-4.34c0-.48-.39-3.49.37-3s.7.7.85,6.12C565.18,356.35,565.26,357.76,564.9,357.62Zm.25-8.61c.1,0,2.71.12,3.4.11s1,.12,1.24.76c.14.45-3.6.15-4.26,0C565.23,349.81,564.84,349.08,565.15,349Zm.83,8.58c-.12,0-.33-.35-.34-.55-.24-6.29-.26-6.7.08-6.68,2.41.16,3.62.22,4.21.31s.58.25.56.62a29,29,0,0,0,.17,5.81C570.69,357.78,569.19,357.71,566,357.59Zm9.88-14.45c.09,0,4.26.16,4.32.2s.4.2.36.4-.26.19-.33.18c-.74,0-1.95,0-3.48,0C576.19,344,575.52,343.19,575.86,343.14ZM576.1,357c0,.33-.23.47-.56.47-.62,0-.47.51-.53-11.46,0-1.66-.1-2.44.33-2.17.91.56.52,3.43.54,7.76C575.91,354.54,576.14,356.14,576.1,357Zm5.67-.85c0,1,0,1.12-4.41,1.3a.72.72,0,0,1-.81-.72c-.27-5.2-.29-5.75-.27-7.33,0-2.94-.11-4.15.08-4.63s.45-.3,1.16-.25h3.81c.33,0,.59.21.41.5S581.77,353.42,581.78,356.14Zm9.63-19c.34,0,2.06.77,1.74.94s-4.21-.15-4.55-.18-.57-.39-.85-.6C587.32,337,590.94,337.06,591.41,337.13Zm-3.6,6.43c0,1.43,0,7.86-.06,9.65-.07,3.09.61,3.8-.49,3.85-.57,0-.63-.34-.66-.71s-.23-18.87.58-18.54C588.38,338.3,587.76,339.54,587.8,343.56Zm5.89,12.73c.06,1-.26.48-4.51.71-1.6.09-.94-5.79-.9-8.62,0-3.36,0-5.4.22-9.51,0-.34,1.25-.16,3.92-.06,1.34,0,1.35.3,1.26,1.19C593.51,341.75,593,346,593.7,356.29Zm5.8-14.74c-.3,16.44.22,15.53-.45,15.48s-1,.29-1.17-.84c-.28-2.4.46-25.08,1.19-24.82C600,331.7,599.66,332.84,599.5,341.54Zm.37-10.91c5.4-.34,4-.35,5.47.38.6.29-3.57.43-3.91.43C599.7,331.47,599.49,330.65,599.87,330.63Zm6,23.15c.11,4.32,1.61,3.29-5.44,3.27-1.17,0-.12-23.51-.07-24.53,0-.56-.17-.41,4.89-.64C607.1,331.8,605.3,331.65,605.85,353.78ZM558.55,348c8.45-2.29,16.29-3.37,38.66-21.32.83-.67.93.58,1.79.72.34.06,1.42-.05,1.65-.77,1.65-5.18,2.41-7.07,2.46-8,0-.61-.4-.8-1.56-1.37-.61-.3-1.25.45-2,.72a39.14,39.14,0,0,1-7.33,2.32c-.64.18-.59.35-.44.57.77,1.13,1.5,1.61,1.62,2.15.2.89-1.29,1.92-7.09,6.33a73.89,73.89,0,0,1-10.65,6.5c-22.57,11.41-23.84,4.43-21.43,11.48.16.46.43.41,3.29.86Zm39.77-22.12c.29-.15.32-.33,1.06.37a.29.29,0,0,1,.12.3C599.28,327.17,598,326,598.31,325.86Zm-2.1-6.13c5.13-1.81,4.59-2.1,5.49-1.46.2.15-1.1.74-1.34.82-3.3,1.13-4.73,1.61-5.47,1.76s-.79,0-1.31-.24C593.28,320.49,595.31,320,596.21,319.73Zm-2.76,1.63c1.48,1,2,1.32,1.62,1.33C593.73,322.7,593,321.05,593.45,321.36Zm-35.69,21.86a77.6,77.6,0,0,0,12.65-4.41,76.16,76.16,0,0,0,18.51-10.73,47.47,47.47,0,0,0,5.15-4.35c.45-.43.46-.36,1.13-.27a.14.14,0,0,1,.07.25c-11.78,10.08-19,15.12-36.08,20.07a27.33,27.33,0,0,0-3.25,1.14c-.35.15-.49-.09-.81-.26C553.87,344,554.87,344,557.76,343.22Zm-1.93,4c-1.59-.26-1.56-2.19-1-1.92C555.15,345.51,556.43,347.36,555.83,347.26Zm1-.06c-.63-1.31-.64-1.87.14-2.18,2.14-.85,9.54-.95,25.48-10.82,2.46-1.52,14.78-10.67,14-11.42s-1.35-1.06-1.21-1.31,1.9-.68,6.6-2.58c.41-.17.64-.05.5.43-1.28,4.46-1.73,6-2.08,6.35s-.53-.35-1.19-.73-1.19.49-2.79,1.8c-20.3,16.67-34.22,20.09-38.42,20.91A1,1,0,0,1,556.82,347.21Z" transform="translate(-553.39 -317.2)"/></svg>