<svg id="Layer_1" data-name="Layer 1" xmlns="http://www.w3.org/2000/svg" viewBox="0 0 48.15 52.87"><defs><style>.cls-1{fill:#101063;}</style></defs><title>icon-09</title><path class="cls-1" d="M520.7,337.06c-.72,1.06-1.5,2.07-2.16,3.16a62.83,62.83,0,0,1,7.58-1.2c2.67-.39,6.15-.88,7.92-3.17,4.91-6.35-5.28-15.59,1.63-21.57,4.89-4.23,12.11-3.19,18-4.12,3.73-.59,6.23-2.47,6.55-6.47.29-3.71.66-7.68.05-11.4a21.6,21.6,0,0,1-1.73,3.47.32.32,0,0,1-.56-.33,14.35,14.35,0,0,0,2-4.62.36.36,0,0,1,0-.08c0-.31.43-.53.59-.2.92,1.92,2.83,2.82,4.82,3.25.41.09.23.71-.17.62a8,8,0,0,1-4.34-2.26,43.59,43.59,0,0,1-.11,12.12,6.79,6.79,0,0,1-4,5.78c-6.24,2.69-14.28-.27-20,4.14-5.23,4-1.85,9.84-1.05,15,.4,2.6.41,5.72-1.74,7.62-4,3.5-10,2.72-14.89,3.91a6.25,6.25,0,0,1,3.38,2c.24.34-.32.66-.56.32-.86-1.2-2.7-1.71-4.1-2a.26.26,0,0,1-.17-.07l0,0,0,0a.34.34,0,0,1,0-.34,42,42,0,0,1,2.57-3.85C520.38,336.4,520.94,336.72,520.7,337.06Z" transform="translate(-517.54 -290.37)"/></svg>