<svg id="Layer_1" data-name="Layer 1" xmlns="http://www.w3.org/2000/svg" viewBox="0 0 44.43 58.43"><defs><style>.cls-1{fill:#101063;}</style></defs><title>icon-06</title><path class="cls-1" d="M592.38,380.26c15.86-.51,29.2-22.08,16.5-34.42-1.54-1.49-3.1-3-4.65-4.44,3.22,1.91,6.91,2.79,9.46.91l0,0,0,0,0-.06a.36.36,0,0,0,0-.45l-.35-1.59c.05-.35-.34-.66-.63-.36-3,3.15-8.79,0-11.94-2.33a5.54,5.54,0,0,0,4,.08,9.36,9.36,0,0,0,5.34-5c.72-1.74.4-3.74-1.76-4a9,9,0,0,0-4.91,1,13.14,13.14,0,0,0-3.48,3,10.28,10.28,0,0,0-1.51,1.49h0c.26-1.54,2-3.81,2.55-4.9a7.82,7.82,0,0,0,1-4.7c-.42-2.44-3-.59-4.21.08-.1.05-2.83,1.32-2.89.86a2.62,2.62,0,0,0-.51-1.21,3.31,3.31,0,0,0-2.7-1.07c-2.67-.08-5.68,1.11-8.27.59h0l-.12,0a5.06,5.06,0,0,1-2.75-1.63.38.38,0,0,0-.59.08c-3.68,5.09,2.87,10.43,5.52,14.31l-.13.18c-.35.41-.7.83-1,1.24h0q-1.29,1.53-2.55,3.1c-6.17,6.86-13.54,13.42-12.09,23.46C571.17,374.62,582.88,380.57,592.38,380.26Zm20.23-39.35a1.87,1.87,0,0,0,.33,1c-2.65,1.59-6.48.24-9.59-2C606.39,341.57,610.07,342.71,612.6,340.91ZM611,349.34a16.68,16.68,0,0,1,1.37,13.51c.1-.49.19-1,.25-1.48a17.57,17.57,0,0,0-3.08-12.19c-2-3-4.53-5.46-6.84-8.15C605.45,343.63,609.1,346.15,611,349.34Zm-3.58-20.16c2.15-.15,2.78,1.31,2,3.13a7.45,7.45,0,0,1-.53,1c.32-1.52-.15-3-2.08-3.29a7.28,7.28,0,0,0-3.65.6A8.89,8.89,0,0,1,607.46,329.18Zm-8.36,5.23q.66-.6,1.27-1.25a11.93,11.93,0,0,1,3.65-1.93,6.78,6.78,0,0,1,3-.45c2.68.38.66,4-.41,4.9a9.14,9.14,0,0,1-1.64,1,5.09,5.09,0,0,1-6.26-1.75C598.86,334.73,599,334.57,599.1,334.41Zm-.5,2.82c-.33-.57-.77-1.06-1.13-1.61l.07,0A6,6,0,0,1,598.6,337.23Zm1.53-13.15c1.49-.74,1.21,1.18,1.13,2-.18,2-1.59,4-2.54,5.78.59-1.8,1.81-3.54,2-5.4.14-1.25-.87-1.63-2-1.69C599.23,324.55,599.68,324.31,600.14,324.08Zm-7,0a3,3,0,0,1,.37,1.29,3.86,3.86,0,0,0-.43-1.33Zm-4.17-.06a.11.11,0,0,0,0,0l0,0Zm-8.91,1.08a5.09,5.09,0,0,0-.14,1.57,7.2,7.2,0,0,1-.28-1.49s.38-2.77.76-2.34a4.17,4.17,0,0,0,.94.74A2,2,0,0,0,580.06,325.13Zm2.45,6.14c-1-1.73-3-6.16-.84-6.91a3.83,3.83,0,0,0-.62,1.54c0,.16.22.23.24.07a3.49,3.49,0,0,1,.77-1.69,3.27,3.27,0,0,1,.77,0l.08,0A3.34,3.34,0,0,0,582,326c0,.16.2.22.24.07a2.83,2.83,0,0,1,.94-1.67l.28,0a6.09,6.09,0,0,0-.63,1.72c-.05.15.19.22.24.07.19-.53.25-1.32.68-1.74l.42,0a10.12,10.12,0,0,0-.59,1.48c-.05.15.19.22.24.07a8,8,0,0,1,.62-1.53h.34c-.52,2.36,1,5,2.2,7a.38.38,0,0,0,.65-.38c-1.08-1.81-2.65-4.41-2-6.61l.49,0v1.14a.13.13,0,0,0,.25,0v-1.16l.61-.07a2.8,2.8,0,0,1,.18.88c0,.42,0,.84,0,1.26a.13.13,0,0,0,.25,0,11,11,0,0,0-.07-1.53,3.15,3.15,0,0,0-.14-.65l.45-.06.16,0a4.27,4.27,0,0,1,.36,1.93c0,.16.27.16.25,0a5.08,5.08,0,0,0-.35-2l.53-.09c.44.32.48,1.72.48,2.07a.13.13,0,0,0,.25,0,4.91,4.91,0,0,0-.35-2,.13.13,0,0,0,.09,0c.69-.1.82,1.71.93,2.16,0,.16.28.09.24-.07-.14-.58-.23-2.15-1-2.31l.44-.07a.11.11,0,0,0,.12.13c.61,0,.85,1.88,1,2.33,0,.16.28.09.24-.07a14.11,14.11,0,0,0-.48-1.75,1.32,1.32,0,0,0-.47-.69l.52-.06c.58.47,16.15,5.58,16.23,6.19,0,.16-15-3.83-15-4a4.48,4.48,0,0,0-.87-2.23l.63,0a3.85,3.85,0,0,1,1,2.25c0,.16.27.16.25,0a4.57,4.57,0,0,0-.87-2.23,3.64,3.64,0,0,1,.76.14,3.58,3.58,0,0,1,.61,2.17c0,.11.11.14.19.1s0,.14,0,.2.22.23.24.07a4,4,0,0,0-.14-2,2.45,2.45,0,0,1,.71,1.47,11.92,11.92,0,0,1-1.82,5.44.38.38,0,0,0,.65.38,13,13,0,0,0,1.9-5.53l.16,0a10.68,10.68,0,0,1,.46,2.28c0,.16.27.16.25,0a11.19,11.19,0,0,0-.46-2.32l.15,0a5.78,5.78,0,0,1,.73,2.13c0,.16.27.09.24-.07a7.23,7.23,0,0,0-.55-1.85c.62.32.64,1.26.64,1.88a.13.13,0,0,0,.25,0c0-.79-.07-1.92-1-2.19l.57-.16a1.9,1.9,0,0,1,1,1.68.13.13,0,0,0,.25,0,2.19,2.19,0,0,0-.92-1.8l.14-.05h0l.39-.06a3.7,3.7,0,0,1,1.06,1.39c.07.14.29,0,.21-.13a4.43,4.43,0,0,0-.93-1.31l.35,0a2.28,2.28,0,0,1,1.19,1.6c0,.16.28.09.24-.07a2.7,2.7,0,0,0-.95-1.54c.89,0,1.64.38,1.37,1.61a14.34,14.34,0,0,1-1.21,3.14,7.11,7.11,0,0,0-.94,4.26,12.32,12.32,0,0,1-11.61,1.37C585,334.29,583.71,332.82,582.51,331.27Zm12.9,5.36a11.74,11.74,0,0,1,.75,1,5.46,5.46,0,0,0-.88-1Zm-1,.41-.06-.06h0Zm-1.43.27a27.27,27.27,0,0,1,6.42,12.53c-2.42-4.13-4.67-8.37-7.24-12.41Zm-2.36.22c-1.24,2.77-2.21,5.8-3.73,8.45.39-3,1-6.07,3.05-8.46Zm-3.8-.54s0,0,0,0l.15,0,0,0a6.5,6.5,0,0,0-.34.72l0,0C586.68,337.47,586.76,337.22,586.86,337Zm-.43.48h0c0-.2.1-.39.15-.58l.05,0C586.55,337.08,586.49,337.28,586.43,337.47Zm-.09-.68-.07.26c0-.09,0-.19,0-.28Zm-3.82,4.34h0l0,0c0,.45-.08.9-.08,1.36Q582.47,341.79,582.52,341.13ZM580.46,345a.13.13,0,0,0,.25,0,13.61,13.61,0,0,0-.11-1.44l.19-.25a8.53,8.53,0,0,1,.09,1.27.13.13,0,0,0,.25,0,7.87,7.87,0,0,0-.13-1.54l.26-.32q0,.64,0,1.28a.13.13,0,0,0,.25,0c0-.52,0-1-.06-1.57l.17-.21c0,.51.06,1,.06,1.53a.13.13,0,0,0,.25,0c0-.61-.05-1.22-.07-1.83l.36-.45c0,.57,0,1.13,0,1.7a.13.13,0,0,0,.25,0c0-.19,0-.38,0-.57a.12.12,0,0,0,.25,0c0-.6.06-1.2.12-1.8l.14-.16c0,.4,0,.8,0,1.21a.13.13,0,0,0,.25,0c0-.49,0-1,0-1.47l.17-.19v1.9a.13.13,0,0,0,.25,0v-2.19l.25-.28v1.56a.13.13,0,0,0,.25,0v-1.85l.19-.23a7.75,7.75,0,0,1-.1,1.38c0,.16.21.22.24.07a9.23,9.23,0,0,0,.1-1.74l.35-.44c0,.41,0,.82,0,1.23a.13.13,0,0,0,.25,0,11.1,11.1,0,0,1,.07-1.58c.25-.32.49-.65.73-1l.1-.12s0,0,0,0a.1.1,0,0,0-.06.14l.06.11a4.93,4.93,0,0,1-.14.95.12.12,0,0,0,.09.15.12.12,0,0,0,.23,0s0-.09,0-.14.16.1.2,0,0-.11.06-.17l0,0-.15.37c-.06.15.18.21.24.07l.12-.29a.12.12,0,0,0,.07-.17,7,7,0,0,1,.38-.83.11.11,0,0,0,0-.09l.1,0a5.87,5.87,0,0,1-.5,1.1.13.13,0,0,0,.22.13,6.25,6.25,0,0,0,.52-1.17l.23,0a4.81,4.81,0,0,0-.65,1.19c0,.11.08.18.17.14a.12.12,0,0,0,.23,0c.22-.39.41-.8.67-1.17a.1.1,0,0,0,0-.11l.3.05a3.24,3.24,0,0,1-.44.85c-.09.13.12.26.22.13a3.4,3.4,0,0,0,.47-.93l.35.05c-2.27,2.91-2.68,6.57-3.12,10.17,0,.41.51.46.7.19,2.14-3,3.21-6.82,4.75-10.18,3,4.64,5.48,9.54,8.33,14.25.18.3.73.2.7-.19a27,27,0,0,0-6.62-14.55l.29-.07v.12a.12.12,0,0,0,.2.1c.27.31.58.59.84.91.1.13.28-.05.18-.18s-.14-.15-.21-.22a.12.12,0,0,0,0-.19,3.84,3.84,0,0,1-.41-.5,2.59,2.59,0,0,1,1,1.07c.07.14.29,0,.21-.13a2.77,2.77,0,0,0-1.1-1.19l.14,0a4.64,4.64,0,0,1,1,1.06c.1.12.26,0,.18-.17.1.16.21.31.3.47s.29,0,.21-.13a8.86,8.86,0,0,0-1-1.5l0,0a4.29,4.29,0,0,1,1.29,1.64c.07.14.29,0,.21-.13a4.75,4.75,0,0,0-1.24-1.62l.06,0c.46.55,1.1.93,1.28,1.67a.12.12,0,0,0,.24-.07c-.19-.76-.82-1.15-1.29-1.71l.12-.06a3,3,0,0,1,1.35,1.83c.05.15.29.09.24-.07a3.38,3.38,0,0,0-1.33-1.89l.15-.08a8,8,0,0,1,1.45,2,.12.12,0,0,0,.21-.13,8.69,8.69,0,0,0-1.44-2l.25-.14a16.92,16.92,0,0,1,1.3,1.92c.07.15.29,0,.22-.13s-.08-.13-.11-.2a.12.12,0,0,0,.2-.06l.14.17a5.52,5.52,0,0,1-.53,1.08c-.09.14.13.26.21.13a6.44,6.44,0,0,0,.33-.58,3.84,3.84,0,0,1-.54,1.38c-.09.14.13.26.21.13a3.92,3.92,0,0,0,.61-1.79l.07.08.13.22a3.73,3.73,0,0,1-.62,2.28c-.09.13.12.26.21.13a3.78,3.78,0,0,0,.64-2.06l.16.23a4.41,4.41,0,0,1-.6,2c-.08.14.14.27.22.13a5.13,5.13,0,0,0,.62-1.83l.25.36a19.27,19.27,0,0,1-.85,2.38c-.05.15.19.22.24.07.25-.72.61-1.43.8-2.18l.16.21a4.79,4.79,0,0,1-1,2.35c-.1.13.08.3.18.18a5.15,5.15,0,0,0,1-2.26l.15.2a4.81,4.81,0,0,1-1,2.39c-.11.12.07.3.18.18a4.85,4.85,0,0,0,1.05-2.31l.29.38a5.11,5.11,0,0,1-1.11,2.25c-.1.12.07.3.18.18a5.42,5.42,0,0,0,1.13-2.2l.12.14a11,11,0,0,1-1.19,2.66c-.09.13.13.26.21.13a10.61,10.61,0,0,0,1.16-2.56c4.35,5.21,9.62,9.77,9.93,17.12a19.39,19.39,0,0,1-3.47,11.58c-2.85,4.19-7.27,6.18-12.11,7-8.45,1.48-18.46-1.58-23.14-8.93.62.15,1.23.46,1.82.66.15.05.22-.19.07-.24a14.38,14.38,0,0,0-2.07-.7c-.09-.16-.2-.3-.29-.46a6.11,6.11,0,0,1,1.09.47.12.12,0,0,0,.13-.22,8,8,0,0,0-1.39-.58c-.08-.14-.14-.29-.21-.43.87.39,1.78.72,2.64,1.14.14.07.27-.14.13-.21-1-.46-2-.82-2.93-1.27-.11-.23-.24-.46-.34-.7a22.07,22.07,0,0,1,3.39,1.52c.14.07.27-.15.13-.22a20.72,20.72,0,0,0-3.62-1.58,16.6,16.6,0,0,1-.58-1.7c-1.4-5.09,1.79-10.09,4.66-14,1.44-2,2.93-4,4.44-5.93C580.42,344.24,580.45,344.62,580.46,345Zm-8.34,9a31.53,31.53,0,0,1,5.23-7.41L574.86,350a24.63,24.63,0,0,0-4,7.58A19.07,19.07,0,0,1,572.12,354Zm-1.77,8.69c0,.2,0,.4.07.6a11.08,11.08,0,0,0,.5,2h-.08a.1.1,0,0,0-.11.08A15.33,15.33,0,0,1,570.35,362.72Zm3.7,9.05a14.69,14.69,0,0,1-3.29-6.27.12.12,0,0,0,.08,0l.18,0c0,.11.07.21.12.32a.13.13,0,0,0,0,.22l.16.09c.1.22.19.44.3.66a.12.12,0,0,0,0,.17l.07,0a21.89,21.89,0,0,0,7.09,7.6c4.51,3.06,10.14,4,15.49,3.59a21.41,21.41,0,0,0,9.66-3C594.9,382.14,581.49,380.2,574,371.78Zm13.29-16.45c0,1.68,1.39,2.63,2.77,3.34l.54.28.08-6.87-.48.13A3.53,3.53,0,0,0,587.34,355.33Zm2.58,2.38c-1.3-.75-1.83-1.46-1.83-2.37a2.62,2.62,0,0,1,1.88-2.25Zm6.35,8.21c.17-1.63-1-3.25-3-4.22l-.53-.25-.06,7.6.46-.11C594.92,368.52,596.1,367.39,596.26,365.92Zm-2.83-3.26c1.42.83,2.21,2,2.09,3.18a2.8,2.8,0,0,1-2.13,2.24Zm-7,8a8.76,8.76,0,0,0,.9.16,13.64,13.64,0,0,1,2.39.51c0,.17,0,.37,0,.58-.1,1.31-.13,2.27.41,2.67a8,8,0,0,0,2,.18c.76,0,1-.06,1.09-.19.34-.34.33-1.16.19-2.88,0-.26,0-.48,0-.63a12.07,12.07,0,0,1,1.59-.78,8.22,8.22,0,0,0,1.82-.94,4.87,4.87,0,0,0,1.8-4.54c-.44-2.46-2.83-4.49-5.09-5.47l.07-6.46a9.75,9.75,0,0,1,3,.91l.47.23.07-.52c.32-2.39.23-2.53-.12-2.62a9,9,0,0,0-.91-.17c-1-.15-2.44-.38-2.43-1.07,0-.07,0-.23,0-.44.14-1.54.12-2-.13-2.22-.08-.07-.26-.24-1.85-.24-1.28,0-1.41.13-1.5.22-.44.43-.31,1.17-.16,2s.22,1.35-.06,1.42c-2.79.7-4.67,2.54-4.9,4.82s1.22,4.48,3.8,5.71c1.61.77,1.33,3.69,1.11,6-.06.58-.11,1.13-.13,1.63a10.64,10.64,0,0,1-4.13-1.24l-.37-.2-.33.78c-.34.8-.55,1.29-.33,1.76S585.4,370.31,586.47,370.64Zm-.8-2.5v0a11.65,11.65,0,0,0,4.46,1.17l.4,0v-.39c0-.56.07-1.24.14-2,.25-2.58.55-5.79-1.53-6.79-2.28-1.1-3.58-3-3.38-5s1.82-3.54,4.33-4.17c1-.24.78-1.37.62-2.28a3.16,3.16,0,0,1-.08-1.24,7.11,7.11,0,0,1,1-.05,9.56,9.56,0,0,1,1.3.07,11.51,11.51,0,0,1-.08,1.58c0,.23,0,.42,0,.5,0,1.33,1.77,1.61,3.07,1.82l.59.1c0,.19,0,.58-.12,1.34a10.71,10.71,0,0,0-3.15-.82l-.41,0-.09,7.81.24.1c2.06.83,4.47,2.76,4.87,5a4.11,4.11,0,0,1-1.57,3.85,9.71,9.71,0,0,1-1.62.81c-1.52.67-2,.92-2,1.36,0,.16,0,.45,0,.8a11,11,0,0,1,0,2.24,5.28,5.28,0,0,1-.58,0c-.62,0-1.34,0-1.58-.08a5.33,5.33,0,0,1-.06-2c0-.29,0-.55,0-.76,0-.56-.71-.76-3-1.12-.35-.05-.7-.11-.79-.14-.62-.2-1.27-.42-1.37-.64S585.44,368.69,585.67,368.14Z" transform="translate(-569.5 -321.84)"/></svg>